# xmcd
#
# Track frame offsets: 
#        150
#        20701
#        38729
#        52419
#        70257
#        87492
#        109989
#        130031
#        149902
#        170370
#        191026
#        207879
#        229242
#        250228
#        268692
#        283883
#        301752
#        322896
#        343147
#
# Disc length: 4807 seconds
#
# Revision: 0
# Processed by: cddbd v1.5.2PL0 Copyright (c) Steve Scherf et al.
# Submitted via: ExactAudioCopy v0.99pb5
#
DISCID=2e12c513
DTITLE=Ricky Martin - Music History CD1
DYEAR=2001
DGENRE=General Latin Pop
TTITLE0=She Bangs
TTITLE1=Livin" La Vida Loca
TTITLE2=Por Arriba,Por Abajo
TTITLE3=Private Emotion
TTITLE4=Loaded
TTITLE5=Nobody Wants To Be Lonely
TTITLE6=Maria(Spanish Radio Edit)
TTITLE7=Come To Me
TTITLE8=La Cope De La Vida
TTITLE9=Casi Un Bolero
TTITLE10=Jezabel
TTITLE11=Volveras
TTITLE12=Lola,Lola
TTITLE13=You Stay With Me
TTITLE14=Amor
TTITLE15=Spanish Eyes
TTITLE16=Saint Tropez
TTITLE17=I Am Made Of You
TTITLE18=She's All I Ever Had
EXTD=
EXTT0=
EXTT1=
EXTT2=
EXTT3=
EXTT4=
EXTT5=
EXTT6=
EXTT7=
EXTT8=
EXTT9=
EXTT10=
EXTT11=
EXTT12=
EXTT13=
EXTT14=
EXTT15=
EXTT16=
EXTT17=
EXTT18=
PLAYORDER=
